<svg width="106" height="37" viewBox="0 0 106 37" fill="none" xmlns="http://www.w3.org/2000/svg">
<path d="M96.8389 10.665V34.7031H103.792V10.665H96.8389ZM104.17 4.44434C104.17 3.43717 103.807 2.61442 103.081 1.97754C102.415 1.36677 101.553 1.04207 100.496 1.00391L100.282 1C99.127 1 98.1934 1.32585 97.4824 1.97754C96.7716 2.6144 96.416 3.43724 96.416 4.44434L96.4209 4.62793C96.4626 5.53823 96.816 6.29922 97.4824 6.91016C98.149 7.50727 99.0112 7.82404 100.068 7.86133L100.282 7.86523C101.365 7.86523 102.253 7.5851 102.945 7.02539L103.081 6.91016C103.761 6.2992 104.123 5.5383 104.166 4.62793L104.17 4.44434ZM104.792 35.7031H95.8389V9.66504H104.792V35.7031ZM105.164 4.67969C105.108 5.85007 104.632 6.86196 103.75 7.6543H103.749C102.818 8.48847 101.629 8.86523 100.282 8.86523C98.9351 8.86523 97.7466 8.48848 96.8154 7.6543L96.8066 7.64746V7.64648C95.8829 6.79943 95.4161 5.70732 95.416 4.44434C95.416 3.1743 95.8775 2.07743 96.8076 1.24023L96.9844 1.08594C97.887 0.340432 99.0136 0 100.282 0C101.635 7.27808e-06 102.826 0.38744 103.757 1.24023H103.756C104.698 2.07445 105.17 3.17031 105.17 4.44434L105.164 4.67969Z" fill="white"/>
<path d="M78.4189 27.5273C78.4189 27.009 78.4935 26.535 78.6416 26.1055C78.7842 25.7167 78.9948 25.3733 79.2734 25.0752L79.3965 24.9502C79.7371 24.6096 80.1816 24.3429 80.7295 24.1504C81.2219 23.9819 81.7941 23.8873 82.4453 23.8662L82.7295 23.8613H85.2617V27.8779C85.1925 28.01 85.1117 28.145 85.0176 28.2822C84.6621 28.7858 84.1585 29.2158 83.5068 29.5713C82.87 29.9267 82.0997 30.1045 81.1963 30.1045V29.1045C81.9693 29.1045 82.5632 28.9529 83.0195 28.6982L83.0283 28.6934C83.5726 28.3965 83.9492 28.0615 84.2002 27.7061C84.2221 27.6738 84.2423 27.642 84.2617 27.6113V24.8613H82.7295C82.0388 24.8613 81.4868 24.9485 81.0537 25.0967C80.6225 25.2492 80.3174 25.4433 80.1035 25.6572L80.0879 25.6729C79.8617 25.8892 79.6965 26.1402 79.5859 26.4355C79.4796 26.7456 79.4189 27.1064 79.4189 27.5273L79.4336 27.7568C79.4608 27.974 79.5272 28.166 79.6299 28.3418C79.7348 28.5106 79.8682 28.6545 80.0391 28.7754L80.2246 28.8896C80.4718 29.022 80.7859 29.1045 81.1963 29.1045V30.1045L80.9941 30.0986C80.5956 30.0778 80.2347 29.9944 79.9111 29.8486L79.752 29.7715C79.3892 29.5772 79.0949 29.3199 78.8682 29.001L78.7744 28.8604C78.567 28.5104 78.4507 28.1261 78.4248 27.708L78.4189 27.5273ZM84.2617 18.6631C84.2617 18.1139 84.1884 17.6764 84.0654 17.332L84.0098 17.1904C83.885 16.8993 83.7062 16.6725 83.4629 16.4951L83.3545 16.4229C83.0861 16.2551 82.6726 16.1299 82.041 16.1299C81.5196 16.1299 81.1143 16.2212 80.7988 16.3691C80.513 16.5097 80.3113 16.6952 80.167 16.9297C80.0412 17.157 79.9521 17.4831 79.9521 17.9521V18.9521H71.0205V17.9521L71.0342 17.4902C71.0958 16.4226 71.3732 15.4108 71.8682 14.4658C72.4281 13.397 73.2198 12.4687 74.2236 11.6787L74.2305 11.6738C75.2558 10.88 76.4614 10.2814 77.8311 9.86621L78.3574 9.71289C79.6026 9.38092 80.9585 9.22073 82.418 9.2207C84.4122 9.2207 86.2257 9.55853 87.8379 10.2588H87.8369C89.4788 10.9505 90.8002 12.0074 91.7715 13.4287C92.7721 14.8779 93.2383 16.66 93.2383 18.707V28.7715L93.2422 29.2891C93.2595 30.4461 93.3357 31.3364 93.46 31.9795C93.6017 32.629 93.79 33.1853 94.0186 33.6562L94.1191 33.8525L94.2383 34.0742V35.7031H85.6035L85.334 35.127C85.2266 34.8976 85.1288 34.6558 85.0391 34.4023C84.4395 34.8683 83.7569 35.2535 82.9971 35.5605L82.998 35.5615C82.0175 35.9642 80.8816 36.1474 79.6191 36.1475C78.0736 36.1475 76.6373 35.8554 75.3262 35.2568L75.0664 35.1328L75.0576 35.1289C73.7719 34.4783 72.7099 33.5929 71.8896 32.4736L71.7285 32.2471L71.7236 32.2393C70.8783 30.9799 70.4658 29.538 70.4658 27.9492C70.4658 26.5675 70.7179 25.2998 71.249 24.1689C71.7826 23.0332 72.5812 22.0765 73.624 21.3027L73.6309 21.2988C74.691 20.5248 75.9859 19.9676 77.4854 19.6035C78.992 19.2229 80.7224 19.04 82.6631 19.04V20.04L81.9688 20.0488C80.3746 20.0877 78.9617 20.2622 77.7305 20.5732C76.3235 20.9139 75.1538 21.4252 74.2207 22.1064C73.3024 22.7878 72.6134 23.6172 72.1543 24.5947L71.9932 24.9678C71.6416 25.8539 71.4658 26.8476 71.4658 27.9492L71.4697 28.2109C71.5122 29.511 71.8734 30.668 72.5537 31.6816C73.2942 32.7628 74.2795 33.6143 75.5088 34.2363C76.5843 34.7676 77.7677 35.0663 79.0586 35.1328L79.6191 35.1475C80.7891 35.1474 81.7888 34.9773 82.6182 34.6367C83.4623 34.2961 84.181 33.8593 84.7734 33.3262C85.064 33.0574 85.3287 32.7787 85.5693 32.4922C85.7298 33.3548 85.9531 34.0918 86.2393 34.7031H93.2383V34.3252C92.9124 33.7179 92.6602 33.007 92.4824 32.1924C92.3399 31.4666 92.26 30.5028 92.2422 29.3008L92.2383 28.7715V18.707C92.2383 16.8112 91.8083 15.2412 90.9492 13.9971C90.1438 12.8168 89.0651 11.9164 87.7129 11.2959L87.4395 11.1758C86.0648 10.5787 84.5077 10.261 82.7686 10.2236L82.418 10.2207C80.8334 10.2207 79.4045 10.4205 78.1309 10.8203C76.8573 11.2054 75.761 11.7531 74.8428 12.4639C73.9393 13.1748 73.2427 13.9976 72.7539 14.9307L72.582 15.2832C72.2077 16.1159 72.0205 17.006 72.0205 17.9521H78.9521C78.9521 17.4209 79.0433 16.963 79.2246 16.5791L79.3076 16.4189C79.5593 16.0044 79.9151 15.686 80.374 15.4639C80.848 15.2417 81.4041 15.1299 82.041 15.1299L82.3174 15.1367C82.9475 15.1691 83.4701 15.315 83.8848 15.5742C84.3587 15.8704 84.7065 16.2785 84.9287 16.7969C85.1508 17.3152 85.2617 17.9375 85.2617 18.6631V20.04H82.6631V19.04H84.2617V18.6631Z" fill="white"/>
<path d="M69.2305 22.8613L69.1738 23.915C69.047 26.2916 68.3934 28.4242 67.1953 30.2871C66.0097 32.1386 64.3654 33.5829 62.291 34.6201L62.2852 34.623C60.1938 35.6526 57.7474 36.1475 54.9785 36.1475C52.8849 36.1474 50.9659 35.8108 49.2363 35.1191L48.8936 34.9766C47.1987 34.2416 45.7348 33.2063 44.5117 31.874L44.2705 31.6045L44.2627 31.5957L45.0254 30.9482C46.1954 32.296 47.6175 33.3328 49.291 34.0586C50.9646 34.7843 52.8606 35.1474 54.9785 35.1475C57.4641 35.1475 59.6308 34.7307 61.4785 33.8975L61.8438 33.7256C63.7691 32.7629 65.2723 31.4374 66.3535 29.749C67.4495 28.0457 68.0573 26.083 68.1758 23.8613H60.9775C60.9035 25.1203 60.6369 26.1647 60.1777 26.9941L59.9961 27.2949C59.5506 27.9755 58.952 28.4974 58.2002 28.8604C57.3412 29.2602 56.2671 29.46 54.9785 29.46V28.46C56.1709 28.46 57.09 28.2735 57.7783 27.9531C58.4459 27.6279 58.9467 27.1529 59.3027 26.5098C59.6696 25.847 59.9105 24.9593 59.9785 23.8027L60.0342 22.8613H69.2305ZM42.4795 26.3936C43.0939 28.1526 43.9424 29.6708 45.0254 30.9482L44.2627 31.5947C43.0918 30.2135 42.1854 28.5851 41.5352 26.7236L41.4082 26.3486L41.4062 26.3398L42.3594 26.0391L42.4795 26.3936ZM48.7803 19.5293V17.5078C48.7803 15.7899 48.9065 14.3085 49.1582 13.0645C49.41 11.8057 49.7875 10.7687 50.291 9.9541C50.8094 9.13957 51.4536 8.53939 52.2236 8.1543C53.0085 7.76926 53.9194 7.57622 54.9561 7.57617C56.3779 7.57617 57.5189 7.79883 58.3779 8.24316C59.2369 8.6875 59.8734 9.34689 60.2881 10.2207C60.6509 10.9723 60.878 11.8768 60.9688 12.9346L60.999 13.3975H68.2197C68.0253 11.3145 67.4599 9.44627 66.5234 7.79297L66.3311 7.46582C65.3591 5.84121 64.0102 4.54111 62.2832 3.56738L61.9326 3.37793C60.0368 2.38558 57.7109 1.88867 54.9561 1.88867C52.9123 1.88872 51.0611 2.25186 49.4023 2.97754L49.0938 3.11719C47.5664 3.83489 46.2475 4.83293 45.1367 6.11035L44.918 6.36914C43.8393 7.67951 43.0014 9.23701 42.4043 11.042L42.2881 11.4062C41.7284 13.24 41.4482 15.2885 41.4482 17.5518V19.5293L41.4629 20.4229C41.5293 22.4819 41.828 24.3543 42.3594 26.0391L41.4062 26.3389C40.7631 24.2994 40.4483 22.026 40.4482 19.5293V17.5518C40.4482 15.0507 40.7781 12.7723 41.4541 10.7285C42.1275 8.69279 43.1 6.9283 44.3818 5.4541C45.6641 3.97948 47.207 2.84648 49.001 2.06152C50.8014 1.27383 52.7921 0.888722 54.9561 0.888672C57.6482 0.888672 60.0092 1.34339 62.0029 2.29492L62.3965 2.49121C64.4433 3.56259 66.0486 5.04851 67.1855 6.94629C68.2523 8.70412 68.9098 10.6826 69.1689 12.8652L69.2158 13.3047L69.3174 14.3975H60.0449L60.001 13.4443C59.953 12.4246 59.7802 11.594 59.5098 10.9297L59.3877 10.6553L59.3848 10.6494C59.0638 9.97312 58.5827 9.4747 57.918 9.13086C57.252 8.78651 56.2873 8.57617 54.9561 8.57617C54.047 8.57622 53.2933 8.74334 52.6699 9.04785L52.6709 9.04883C52.0851 9.34176 51.5733 9.80482 51.1416 10.4795L50.9863 10.7471C50.6335 11.3976 50.3451 12.2278 50.1387 13.2598L50.1377 13.2627C49.9029 14.4232 49.7803 15.8349 49.7803 17.5078V19.5293L49.7852 20.1406C49.8054 21.3412 49.8866 22.4011 50.0244 23.3242L50.0977 23.7744C50.3048 24.9342 50.6268 25.8387 51.0352 26.5205C51.4502 27.1891 51.9612 27.6604 52.5664 27.9688C53.1772 28.2799 53.9682 28.4599 54.9785 28.46V29.46C53.9937 29.4599 53.1391 29.3071 52.415 29.001L52.1123 28.8604C51.3274 28.4604 50.6832 27.8526 50.1797 27.0381C49.691 26.2235 49.3354 25.1942 49.1133 23.9502C48.9189 22.8616 48.8095 21.5973 48.7852 20.1572L48.7803 19.5293Z" fill="white"/>
<path d="M0 9.26953H12.6689L27.1836 24.6035H37.7627V29.834H25.0938L10.5801 14.5H0V9.26953ZM25.5244 10.2695V13.5H36.7627V10.2695H25.5244ZM1 13.5H11.0098L25.5244 28.834H36.7627V25.6035H26.7529L12.2383 10.2695H1V13.5ZM37.7627 14.5H24.5244V9.26953H37.7627V14.5Z" fill="white"/>
</svg>
